<mxfile host="Electron" modified="2024-03-24T18:51:20.148Z" agent="Mozilla/5.0 (Windows NT 10.0; Win64; x64) AppleWebKit/537.36 (KHTML, like Gecko) draw.io/21.6.8 Chrome/114.0.5735.289 Electron/25.5.0 Safari/537.36" etag="tvciI6bUCV3qVbZKPYuL" version="21.6.8" type="device">
  <diagram name="Страница — 1" id="_NNJ8Qyopue1inblywc9">
    <mxGraphModel dx="430" dy="515" grid="1" gridSize="10" guides="1" tooltips="1" connect="1" arrows="1" fold="1" page="1" pageScale="1" pageWidth="827" pageHeight="1169" math="0" shadow="0">
      <root>
        <mxCell id="0" />
        <mxCell id="1" parent="0" />
        <mxCell id="Faq8xng280zrM9as-v0_-14" style="edgeStyle=orthogonalEdgeStyle;rounded=0;orthogonalLoop=1;jettySize=auto;html=1;exitX=0.75;exitY=1;exitDx=0;exitDy=0;entryX=0.25;entryY=0;entryDx=0;entryDy=0;" edge="1" parent="1" source="gyxe0gYEYOUFi3LcDs3f-1" target="Faq8xng280zrM9as-v0_-9">
          <mxGeometry relative="1" as="geometry" />
        </mxCell>
        <mxCell id="Faq8xng280zrM9as-v0_-20" style="edgeStyle=orthogonalEdgeStyle;rounded=0;orthogonalLoop=1;jettySize=auto;html=1;entryX=0.25;entryY=0;entryDx=0;entryDy=0;" edge="1" parent="1" source="gyxe0gYEYOUFi3LcDs3f-1" target="Faq8xng280zrM9as-v0_-10">
          <mxGeometry relative="1" as="geometry">
            <Array as="points">
              <mxPoint x="100" y="140" />
              <mxPoint x="209" y="140" />
            </Array>
          </mxGeometry>
        </mxCell>
        <mxCell id="Faq8xng280zrM9as-v0_-26" style="edgeStyle=orthogonalEdgeStyle;rounded=0;orthogonalLoop=1;jettySize=auto;html=1;exitX=0.25;exitY=1;exitDx=0;exitDy=0;entryX=0.128;entryY=-0.031;entryDx=0;entryDy=0;entryPerimeter=0;" edge="1" parent="1" source="gyxe0gYEYOUFi3LcDs3f-1" target="Faq8xng280zrM9as-v0_-11">
          <mxGeometry relative="1" as="geometry">
            <Array as="points">
              <mxPoint x="70" y="60" />
              <mxPoint x="29" y="60" />
            </Array>
          </mxGeometry>
        </mxCell>
        <mxCell id="gyxe0gYEYOUFi3LcDs3f-1" value="" style="shape=parallelogram;perimeter=parallelogramPerimeter;whiteSpace=wrap;html=1;fixedSize=1;" parent="1" vertex="1">
          <mxGeometry x="40" y="10" width="120" height="30" as="geometry" />
        </mxCell>
        <mxCell id="Faq8xng280zrM9as-v0_-8" value="" style="shape=parallelogram;perimeter=parallelogramPerimeter;whiteSpace=wrap;html=1;fixedSize=1;" vertex="1" parent="1">
          <mxGeometry x="110" y="240" width="100" height="30" as="geometry" />
        </mxCell>
        <mxCell id="Faq8xng280zrM9as-v0_-17" style="edgeStyle=orthogonalEdgeStyle;rounded=0;orthogonalLoop=1;jettySize=auto;html=1;entryX=0.5;entryY=0;entryDx=0;entryDy=0;" edge="1" parent="1" source="Faq8xng280zrM9as-v0_-9" target="Faq8xng280zrM9as-v0_-10">
          <mxGeometry relative="1" as="geometry">
            <Array as="points">
              <mxPoint x="246" y="140" />
            </Array>
          </mxGeometry>
        </mxCell>
        <mxCell id="Faq8xng280zrM9as-v0_-9" value="" style="rounded=0;whiteSpace=wrap;html=1;" vertex="1" parent="1">
          <mxGeometry x="170" y="80" width="150" height="40" as="geometry" />
        </mxCell>
        <mxCell id="Faq8xng280zrM9as-v0_-4" value="" style="shape=image;verticalLabelPosition=bottom;labelBackgroundColor=default;verticalAlign=top;aspect=fixed;imageAspect=0;image=data:image/png,iVBORw0KGgoAAAANSUhEUgAAAOUAAAAqCAYAAABMd5x3AAAAAXNSR0IArs4c6QAAAARnQU1BAACxjwv8YQUAAAAJcEhZcwAADsMAAA7DAcdvqGQAAAeCSURBVHhe7Z05ixZLFIZr7h9wS41cwEyRMXNSBTMDUTNBcMsHl0ndzV1+gYKB0QgamCiiIqKBkWhk6IK/QPsp+51bNF8vVb1+znmg6LZ7uqvqbHWqqu93F35nOMMwJsN/+dEwjIlgTmkYE8Oc0jAmhjmlYUwMc0rDmBjmlIYxMcwpDWNijOqU379/d/fu3XP79u1zjx8/zq8axvzx4cMHt2PHDnfz5k1v120YzSlxwp07d7qLFy+6I0eOuF27duV3DGP+2Lp1q1teXnbXr1/3ds1gkwxf9DSBPw3L6upqfieeS5cu+XccPHjw97dv3/Kr6wP6HMoRWRj/Dtjz0aNHvW7Pnj2bX42jsVOGlVE+f/6c34nj7t27/nmMMwbqp5M8O+/cuHFjTY7379/PrxpT5f37995eY2xWtpoSdKMsXMa0ffv2/EocdI7nN23aFDVC4sg8w7OxzjxFnj9/7vtCSQ1uRv9go8rqKNh/U3gWP+E59B1D1Jzy3bt3/njgwAF/jOX8+fP+eOHCBbdlyxZ/XsWLFy/85PnMmTPu58+f+dVx+fLli5/Mt5kzfPz40R8zpblt27b587FhceLBgwfu3Llz+ZX1Dfplbnj16tX8ShzY9+XLl/35iRMn/LEpUU759u1bf9y9e7c/xoCDPXnyxJ+fPHnSH8vA8I8dO+aWlpZ8AMgijTfgMaH9GCztILj8+vUrvxMPK3WwuLjoj2OCrFdWVrwBHj9+3P97PYOe2Q1gAZLBY3V1Nb8TDzacZXguy4bidhfyEbMW0iz+nEIaGotybOaldVAXaWqY2vFvnh86fWXOlznPWt9JSUhjYtLvIkprSMvHgpQqXCNgeoCO1ns6jb5JWUP9SkYx6auIsXvR2ClprJQXouthmbUy29YQh3RKDBMFaB6retusOIuy4MZ5WB+l65VZDA19SRcUzrnWJsjg4HonRhiCvnWP4JYS0MdGskpxyjK/qaKxU2rCO8spwslwUSkQGmLspFcM4ZS0TZGN0sfogWPr/UXCexhwG0cJof3oKHR6IneqLkJ4h96poveGslShDV31ayjU9hSnDOXTNCA1dkqlcLMapkhY1uiwYakG3qdTEs2KKSoRvg/jqQpuMmIcpou6kXsxRaX+roKMRnfJSnZAvfQFmcpBsQ21Y8y0PQW1O8UpQc83zbQaOSUC14slZIHwUQyGXYaGcEoqXTslhomQ+xg9qigLbpIRTtMGdMW75CAU6qzSTyoYWdhe9Y1rnBcDi9qDzcwTandbp2z6fCMvwVD1YoHAcRCMum5YpjHF52Pp0inDtKrr0aMO1Rs6P/Vzra3jMAKFQYZ+9h1kQlQvAWGWPOW0XQXWoVC/hnLKRlsiL1++9MdMmP7IfhZL6Oxtffr0KWmLZEzu3Lnjj/Tnx48f7sqVK4PsF7LcLvbv37+2/E57ssDml9Db8OjRI7+fmzmFX4a/ffu2r2cItM0Dp06dqpTnxo0b87NqkM/CwkLrEsp9HmjklM+ePfNH9hnpJPtZKB+DavIRwIYNG/KzaZCNIP5IfzZv3uz36YbYn1NwA+TIPix7v7Shi8B2+PDhtX0xHJN91aEM8tWrV/5I/WX70Nrn3rt3rz8aJeQjZiVKiZReKR3lehPC9Dc1TewyfQXaQT/CdK/vOaUWXTSnCuXS1VbBkHPKkGLfiiBvtaeLraUhUbvbpq+dLfRgLHqpDCe81sSIQ4WkGn3XThmCwWq+Q8Gg+1h9VQAIVx91LVXhVSDrPldfQxQEylZWkbHaMG9Ifik6Sgm8tU6JkGcJU8YUrr5V0db4+nRKgQCLi0D8uwsjnhXcQE5DUOgL2o+epANKl1lBk6Ar/TW1lymhvqXYbkowqnVKGWnRGWYZEw0oi5R6D8+lMIRTCowMBYRGTL1t0i4phxKioEfRyIzTlqWBbZiV2nLOtTZZQdi3We/RaIE8u84+hkB9S3HKFLuvdUopsNig0JgwIgSP0MsipRRDSVGM0suYiNMFGFwxtUUWsX0oC27hCIpMCQjUl2IAMaAPBVYKcqWNKVmBtnQoxeeRk2xo3uaSQPvVt5QBRYE9pu+VThmmJcWXhvdUykZJodEuxuAwWv4+rAfjKXP+vqA+OVZsH0CGOSt90z2V1GwiBfQYprYpmUgYtJCRAhY2wz3eTXCbN4qBi4KNh9OPKpRBoN8YKp0SoaoxsyIolSLwpkLXqMDf1400cuC6kmJEbUAOOGRdAAoJo+0sOSGXKqcdAtpI23CqWNQ32h7qjT6ljr5jovbXlarAjDyl09gBpDZ97RqNekM7k9EPGJyM1PgfjbApQXYUSSoNxDHrRkxj2ijIkqYaf0dIOWRK1gGj/MQkn39lqbF78+aN/1yvi9/KNMZBX3ul/kTMv4J+wxh7fvr0qcumN97OUxjFKeHQoUP+u9lr1665hw8futevX+d3jHmCwApT+5RyaL5+/epu3brlf0IEuz59+nR+Jx77PzkbyfAR+p49e/x5NnfyH/Yb7RltpDTmH32EDvzqW9v/ysX4i42UhjExbKQ0jIlhTmkYE8Oc0jAmhjmlYUwMc0rDmBTO/QGyoTwdCeHSVwAAAABJRU5ErkJggg==;" vertex="1" parent="1">
          <mxGeometry x="171.39000000000001" y="86.5" width="147.21" height="27" as="geometry" />
        </mxCell>
        <mxCell id="Faq8xng280zrM9as-v0_-15" style="edgeStyle=orthogonalEdgeStyle;rounded=0;orthogonalLoop=1;jettySize=auto;html=1;exitX=0.5;exitY=1;exitDx=0;exitDy=0;entryX=0.75;entryY=0;entryDx=0;entryDy=0;" edge="1" parent="1" source="Faq8xng280zrM9as-v0_-10" target="Faq8xng280zrM9as-v0_-8">
          <mxGeometry relative="1" as="geometry" />
        </mxCell>
        <mxCell id="Faq8xng280zrM9as-v0_-10" value="" style="rounded=0;whiteSpace=wrap;html=1;" vertex="1" parent="1">
          <mxGeometry x="171.39" y="160" width="150" height="40" as="geometry" />
        </mxCell>
        <mxCell id="Faq8xng280zrM9as-v0_-5" value="" style="shape=image;verticalLabelPosition=bottom;labelBackgroundColor=default;verticalAlign=top;aspect=fixed;imageAspect=0;image=data:image/png,iVBORw0KGgoAAAANSUhEUgAAALQAAAAlCAYAAADr98PUAAAAAXNSR0IArs4c6QAAAARnQU1BAACxjwv8YQUAAAAJcEhZcwAADsMAAA7DAcdvqGQAAAdeSURBVHhe7ZzLrkxNFMf3+V5A8ALikhASCYcIIiFxHRkIhhIDt8RARIInwMzEMTM7xMAEcUlI3OIWITEwIR6A4Al8+7fO/rfVW9Xe3b1P99Hd9UsqVb0vVbVqrVp12+dM/M7JEokR4b8iTiRGgmTQiZEiGXQDLl68mE1MTFhYunRpcTUxlySDbsCZM2ey6elpS+/YscPixNySDHqW2LJlS5FKzCXJoBvy5MkTi9evX2/xs2fPWtMQwvXr1+16YjAkg27IgwcPsiVLlmSLFy+235s3b84mJyctvXPnzmz79u2WHhcOHjzY1qH5PUiSQTfg+/fv2efPn9vmz3hkrk1NTWX37t3LFi5cWNwZD5D/zp07xa8s27p1a5EaDMmgG/Dq1SuLmT9/+PDBvNG1a9eyt2/fZkeOHLF748jy5cuLVJatXLmySA0ITgoTvXHu3DlOWdtC7p2Lu+NL7qFb7TFokoduAPNnyNsxu3DhgqUfPnxo8Tjz/Plzi1lDDJpk0A1gaiGl7du3z+LHjx9bPM6oo2/bts3iQdKxQbMd5VewCxYssN93797Ndu3aNfDV7GzTrXw8D2vXrrWYXQ52O27cuGG/e+X8+fNWNoF5ufjy5UurftzjOQ/1XLdund3n1LKT7ULyJB+el9zkwQloHSyIeS70Lh0dNm7caHGn0KbK7/jx48XVGa5evdq6Rzm+bdqYmXlUc+zYMZsPHThw4Pf79+/tGnPFycnJ1lyJ+eSw0ot8+RTDrjNfFLo2NTVl+fB+N+TevlUegd9AXvPnz2+7R5ienrb7obk8oWo+z7s8Qx2fPn1q13ieNuA6bRJD9SGQz7dv3+y65FfQ9U6gDv5dguol/fhA2aH8aw1amYUE9AJ4xXZKWYG9BCm9V3qVT3X3RkMDqxP4ztEJlM+75EeHIA+UJuOhLuTPb9WJMjAo7kv5epega2VkzPmI8pdR8LvqfW/MIfn0bjedWXlSd8qnXipf7aK6eJ3wfJlKg64SHHzmoft1zLVBazVOY9bJV+XtZgPkUBmqF9dQJnrwqN3QS9mw6gySMqrugwwK+cvoXsiYQHl3M2Ijr39eToFrpMu6URkhJ1Rp0HWVl8J5bhipUhzMlXwqF2MNGYZ3BOWRw3vwUCfUiFQlk/JnBPDIwVGvGCq73Am7QXlQx5AMMnjqWSZq0PIShJj37WS+9a/i5Yt5X8lXVmy/kUHFRg7VO1QvP6qW8d67yoPGnvGeMwQeX+/G2rQO3yFjjkb1CMkf3eW4ffu2xfnL0eNbbc8M45dmXj59h1FG8g36+Pb169cW547ir7b3q/uzZ88WqT/oY6nQ56w62YTdu3cXqXbYvRDz5s0rUjM7Itq92LRpk8VlXrx4YXHemaJtWsfLly8tzjtzdvjwYUuXUT3WrFljsSdq0G/evLGYLZIQbBP9+PHD0vrSbJhAQUDjh/DyDfL4FoNVufv377fY4xW+evVqS3uqnMzHjx+L1MxHVCG80a9atapIZdmnT5+KVPvRtufmzZsWN/k2XPv4bFGGHKn0Br5+ImrQ6gWLFi2yuMzly5ctbtIb2d/VHmavgTx64f79+xaHejlIPogpvx/IYCFksPLQIaNB2flQb+mQk3n37p3FsU4MOuWDPXv2FKn2zhDSN3vIsplQvTulLg+NXnRoXz/R00khm9wyCIbsUWMu5ZOHyufRFpeRBw51RCk75mR+/vxpMQcUMXQwxHSnU5imHDp0qPiVZRs2bChS3eE7ZGxU5OMviNWv1qC/fv1apGbAQzB3yyfk9lsNi1B4Sz8k1MHnlfk8vlEgjybIawnku3TpUqvBYlOufiEPFTo29goPncJp/uwNlhM3eXWdasbQp69w+vRpi0OUdXzixIm2EUPelfzKJ5pVqEPCihUritQfGAVwNHjnU6dOFVdL5EYRxK+0tc/JCprfrGZ1nxUvq2dWnoRhoUo+dkB0P7Zl2Q/YGaBMQnk7Dup2nlRn6YHdJ9J61u9ClN/nN7JzLySzf5d8gfqy00C55by128L1TsGWlAd5e8gzH3nsXqhtRNSgfeP5oP1FhPLXfcMNA3XySbndKKQpMgJCqC2l8JjjKOvEd1ahZ4hlNMhInlyv6sB6xgfp3XdGBbVlp/j8qZ/aAF1xD3nq8owaNLAPKMWqFwoEUI/xhQ8TKE/y0WCSz++FDhIZLO0aQgqnvUN4naCvsjEL9OqNh3e8gccgP40CtBv5eL3rQIj8qrxoDNWHdlA5yq+T+sFgNfYPgBHTWFUdUIY16AOVcQZnIgNuQk+7HMMKuxdHjx61dNXf+mmlv3fvXosT/UeHMvnIYXGvjJVB37p1y+KqD8+10s+Hub++gU70j0ePHlnc5FAGxsqgxa9fv4pUO2w96sNyf7CS6D/asvPH7b0wVgZ98uRJi69cuWKeWN8tEPN72bJlduycr6SDp1CJ/uCP+2POpmOKufTYwOKDFbN2AxRY9bMY7GQlnZhdWKh7XTRZjKd/eJ4YKcZyDp0YXZJBJ0aKZNCJESLL/gfvLk6eMJG1ZwAAAABJRU5ErkJggg==;" vertex="1" parent="1">
          <mxGeometry x="185.57999999999998" y="167.5" width="121.62" height="25" as="geometry" />
        </mxCell>
        <mxCell id="Faq8xng280zrM9as-v0_-16" style="edgeStyle=orthogonalEdgeStyle;rounded=0;orthogonalLoop=1;jettySize=auto;html=1;entryX=0.5;entryY=0;entryDx=0;entryDy=0;" edge="1" parent="1" source="Faq8xng280zrM9as-v0_-11" target="Faq8xng280zrM9as-v0_-8">
          <mxGeometry relative="1" as="geometry" />
        </mxCell>
        <mxCell id="Faq8xng280zrM9as-v0_-11" value="" style="rounded=0;whiteSpace=wrap;html=1;" vertex="1" parent="1">
          <mxGeometry x="10" y="160" width="150" height="40" as="geometry" />
        </mxCell>
        <mxCell id="Faq8xng280zrM9as-v0_-6" value="" style="shape=image;verticalLabelPosition=bottom;labelBackgroundColor=default;verticalAlign=top;aspect=fixed;imageAspect=0;image=data:image/png,iVBORw0KGgoAAAANSUhEUgAAAMoAAAAlCAYAAAADd3b/AAAAAXNSR0IArs4c6QAAAARnQU1BAACxjwv8YQUAAAAJcEhZcwAADsMAAA7DAcdvqGQAAAgISURBVHhe7ZxLj01LFMer7xcQj0+AASGReMcrYeA1MtIkBhIS8YiBmHgkJiJhYCgMJGaIcQsGJF5BRAjCABExJPgE7v4t+993dXXt3efsPudcfU79kkrV2bt2Pdeqx6rqHvpdEDKZTC3/lH4mk6khK0oDhoaGRt21a9fKp5l+JitKA759+xaWLl1q4eXLl5uf6W/yHqUhc+fONf/Dhw/mZ/qbPKM04NOnT+Hjx49h48aN5ZMQNm/ePLockxJl+odaRfFrcdzNmzfLN4PNs2fPzF+3bp35cPjwYfOnT58eTp8+beFM59ixY8cYWeR3L6lVFNbiw8PD5a8QVqxYUYYGm9evX5uv/cn379/DqVOnwqZNm8Lz58973omDAEaTkZGR8lcI69evL0O9oVZRZs6cGRYvXmxhNq/8zoRw586dMGfOnDBt2jTrQAaQvXv3hlu3boXZs2eXsTKdZt68eWUohAULFpSh3jDhHuXz58/m+/X4IMPswazBHmXWrFlh586d1jb79u0rY2S6xfv378tQCGvWrClDvWFCRWH0hNWrV5s/6Dx9+tT8s2fP2tKUPUk+S+kNjx49Mp8lbq+pVRRZdyDvT/7w5s0b81etWmVLUfYjP378CK9evbLnme6hQXvDhg3m95JaRdFUp/0Jy44TJ06EGTNmjFoeeDZVoKwy42LCTQk3s4O3rhw4cKB884e7d++aP3/+fPNl+bp9+7b5dajtcD5vBiRZdXhHPA/WxmXLlo2Wu8kM1su8SZN0iM93ONI4d+5cGaMa+oh4qW9Z8gKDVDs8fPhwNL24Py9dujT6jnwqBzwOHKs4fvw4h5HmF8uM34XC2G/vimmwjP13kyp/sSEv347l4sWLo3GKJVb59A88Ix1BusXyy9IivH///t9Xr14t3/4H7aQ0cWq3ly9f2vf+HU5pqA9iV8z09r4Vepk33xKHNnrw4IE9I/7w8LA9p32qUHlwpEN7An3g89fzVqAM/lucykVZ4nfknUq/VlEkWBSaMAlTaRJSxXHtdBrEHdfEqbNbhU6nDnHZ6ZwY37i+bnoed7aEA2WJFQuIT96kJSWkQyQYfEO5+K18KSPp8l4d6xVYzyail3n7doiFjd9136s8KluMvqUuraI0KTv5Uy7lr3ZRWbwyEj+mUlF8xWi4WDjIQO+rGq6K/0NRiC+h90JB58aow+M6N8XnPTIyMlp+OirOX21Dp8ZCM5GwpehV3uRR9x4kqKnBRO9SQgpKmwGvVaivj0+dlQZh6uRRHql+r1QUrwgkGuPfpyr+t4MgUPZUw9NQvGtVGNtBIxf5p/KWsOLoaI9XcAl/O3Qzb7UZAl+F0mfg9WhgolxVKO/UwNYqSoMypuogRaKcMZWK4qciP7IIryjdEKhuo05LNQodlnreCZQvecQjGqhNY2ECCVSdMNbRrbz9bJNSQFEVx4/0KbysNRkgwCt61cCucqTqX2n1knWn+CgsWrTIwv2ETIy6tyWw6mDuPXnyZPmksyi/YgQed9PBW1yOHTtWhv7j/v375jc9/O1W3jpbgi1btpShsXjrKDcaBBYyWbOqzuoeP35sfqGkjW8+PHnyxPxikAh79uyxcIzKodsonkpFkblz27Zt5se8ffu2DPX+lLQTLFy40HyUwnciCsLg0I06IYzkB9u3bzff4zszNTjpHMFfxmyVbuatsyWoajevTGp78Kft/oqK58aNG+ZP5nbIvXv3zMcUnrqKhcIKXz6RVBTszqLqD5OUMULVLv5KelNHGpPBH6C+e/fOfGaTYmoPZ86csd+dRsIIKWHUqJ4SCDqSskGTPxbrZt4vXrwwnxG/Cp2qw9atW8vQWCVLzRbIokb6yaxsJkpDsy0DhS+fSCqKZgs+ShWeEfj69esWPnTokPlTDUYVdezXr1+tTswmxfq1axcbNbgUewXzYzRqp6Z+dWTT5Uc38/7586f5HNxVIXlh2dcq9Mnu3bvLXyGsXLmyDLWHV/Sqy5RXrlwxv6p8SUVRo1aNXJcvXzafRm+yROGWbbE/mpQjjclSbN7M//LlSzh//ryFq9avnUCjWuoKhu/M1Mmz9gheGDll9nuLOrqZ95IlS8yvQjM1HD161PwUlMNz8ODBMTOcZgPSi28Q1CFFB92o8DBrsdVgYjhy5Ej5NKIQunEUH9juP2UWlvWAOEXly6dTE1n2ZO3opvWOtiIPXGx6BZ1x4FIWKVms1CeYYwmn4sZ0O29vlYq/57fkKXVG4r8lXaC8WJ7IN05b1rd2+gprmtKIZZY0i5nS3qXaRoxTFN+oOFWOBAlTaRJOmYynGl5A6syanUAdjIuFCdSZEsYYhEjf4+iHVvugF3krDr6EEWEmTZ5XHSSC4ngnRYzlEUd92sGnT/nUBvQ/76jPRGmOUxQqpw8ZcX0mhHmWauypiDoBxe92nSSM5JVC7UxHpqCsGvkYadsZqHqVdywvfOMVpwrS06yF7MUyppmf9OpG/SpUHtpB+Si9VsoHA/1fWFjnYuEqOmpSFpXM3wv7j7Vr11p4MqJeeY7S73B9HCUplgRZSfoYHVYWM535TRlIRcFas2vXLjMF5j/h7W90w2Qyh5UwEIqiP84BTIv8B49ifRouXLhgzzL9i0zD/tpMEwZCUZhBig2bnejzzyA4H+rEOUzm74Z+17WdX79+md+UgVAUHWQxi7AnQUlS930y/YW/tsN+lHteTcn/eziTaYGBtXplMu2QFSWTaYGsKJlMC2RFyWQmJIR/AWZ0nbxMUv5eAAAAAElFTkSuQmCC;" vertex="1" parent="1">
          <mxGeometry x="20" y="168" width="131.03" height="24" as="geometry" />
        </mxCell>
        <mxCell id="Faq8xng280zrM9as-v0_-7" value="" style="shape=image;verticalLabelPosition=bottom;labelBackgroundColor=default;verticalAlign=top;aspect=fixed;imageAspect=0;image=data:image/png,iVBORw0KGgoAAAANSUhEUgAAADsAAAAkCAYAAAA3pUL9AAAAAXNSR0IArs4c6QAAAARnQU1BAACxjwv8YQUAAAAJcEhZcwAADsMAAA7DAcdvqGQAAALnSURBVGhD7Zm/aipBFMbH+waSN4gEkiqNRNCQwkLFFzClYCHiCwR9AElhb2GvLyD4B1JokAgWChY2WlmaZzD7HeZ4R+/uujOKlzX+YDlnd+Wc+eaMe2Y1sLEQv4Q/0v4KrmIvlavYS+Uq9lLxhdhUKiUCgcD2KJfL8o4evhDbbrfF+/u7PBMiFotJTw/fLONoNCo9ISKRiPT08I3Y1WpFNhwOi5ubG/J18Y3Yfr9PNpFIkDXBN2K73S5Z0+8rgbceU9br9cZ6cGxCoRDenOiwlhldq9Vqm2AwuJlMJvLT5iAPx4cPEJ/zIqeXPMZiERxicDQajZ1B8MDUwR1Dq9XaigKFQmEnBw6M41AuI7GqULsZ5QHw4I6lVCpRPFgIVSuJVcT5MOluGInl5YMq2sHJMbhTAHGIl8lkyN+vIOeDcDe0xWL2EBhVdYKTH5ppr3A85FwsFvLqX/h+MpmUV+zRfhpXq1Wy1nIiu890OpWeEE9PT9Iz5/PzU3pCVCoVcXt7K8/+JR6PS88eLbHL5VKMx2PynVrA19cXWWupuw7MK8PhkKxVVZHP58k3RUvsfD6XnhD39/fS26Ver5M9pvmrfHx8kH19fSW7j7qS1C2lHVpiZ7OZ9IRt1bDkuPIvLy9kj6XT6ZB1iscrCZV/fn4m34mT7aC+v79FNpuVZ0I8PDxIzxy1ak7xeCW9vb2RdcNYLL6/KsVicWfpPj4+km02m8bvn1w1wPFUeCWhqrlcTl51QT6VPTEYDLaPeTR3gFaA/ofHvnofvZDbFHZAKvyZQ30RcdV4Kjjnfr8f3wntPssNXj240UP4/j27Xsv3DolV99yYXBYMcbiHvqvTy7XFYpuGKmIASIYBq7PO2zcMxmnGWYCbWMTk+BDEOTk2xNttMNww2i4eA0TwoL0uv1NxsqexV3q9HlmrUiKdTpN/Ls76Lx7a093dHe2u8COa6c8rppy1sqPRiNrT/xAKrv/PXipXsZeJED+6enoo1XIxSQAAAABJRU5ErkJggg==;" vertex="1" parent="1">
          <mxGeometry x="139.51999999999998" y="242.5" width="40.97" height="25" as="geometry" />
        </mxCell>
        <mxCell id="Faq8xng280zrM9as-v0_-21" value="" style="shape=requiredInterface;html=1;verticalLabelPosition=bottom;sketch=0;rotation=-90;" vertex="1" parent="1">
          <mxGeometry x="98" y="123" width="5" height="10" as="geometry" />
        </mxCell>
        <mxCell id="Faq8xng280zrM9as-v0_-24" value="" style="endArrow=none;html=1;rounded=0;" edge="1" parent="1">
          <mxGeometry width="50" height="50" relative="1" as="geometry">
            <mxPoint x="105" y="130" as="sourcePoint" />
            <mxPoint x="210" y="120" as="targetPoint" />
            <Array as="points">
              <mxPoint x="210" y="130" />
            </Array>
          </mxGeometry>
        </mxCell>
        <mxCell id="Faq8xng280zrM9as-v0_-25" value="" style="endArrow=classic;html=1;rounded=0;entryX=0.331;entryY=-0.001;entryDx=0;entryDy=0;entryPerimeter=0;exitX=0.096;exitY=0.048;exitDx=0;exitDy=0;exitPerimeter=0;" edge="1" parent="1" source="Faq8xng280zrM9as-v0_-21" target="Faq8xng280zrM9as-v0_-11">
          <mxGeometry width="50" height="50" relative="1" as="geometry">
            <mxPoint x="60" y="110" as="sourcePoint" />
            <mxPoint x="110" y="110" as="targetPoint" />
            <Array as="points">
              <mxPoint x="60" y="130" />
            </Array>
          </mxGeometry>
        </mxCell>
        <mxCell id="Faq8xng280zrM9as-v0_-27" value="" style="shape=image;verticalLabelPosition=bottom;labelBackgroundColor=default;verticalAlign=top;aspect=fixed;imageAspect=0;image=data:image/png,iVBORw0KGgoAAAANSUhEUgAAAHMAAAAgCAYAAAAhWUe/AAAAAXNSR0IArs4c6QAAAARnQU1BAACxjwv8YQUAAAAJcEhZcwAADsMAAA7DAcdvqGQAAAWSSURBVGhD7ZvLLjVLFMfLeQO8AQYSEYlbRERighgLnoDgDTATEYYGQmLOwJQEAwki7mHEAAMDI5fEC/j6v9R/f0vv6svu3Y5zOv1LOlW7urtqVa1bVSe74tPD5GSCf2yZkwFyZWaIXJkZIldmhsiVmSFyZWaIQGXe3NyYtrY2U1FRYSYmJmzrF6urq6aurk7u4Rk8S15fX+X5qqoquT8yMiJt5fD4+Gj6+/sL4+n+jo6OCnJCpo2NDXsnOeiD8k9PT9vW73D+vCBjWmBOWDf2DVnwe3t7W9YBdSc4Z/o5PDzE2fPbhTYwPj5edK+2tlbuXV9fS91/H+8k5eXl5bOysvJbfwsLC3JvfX39WzsvypoEV59o8wO5OFfIh99pwPUdHh6W9QQPDw+fra2tBXmmpqak3U+RMtEBhFtZWfkmMH5jIHTKxcKAHABtuIdn8J5+t6+vT54vFfSh++R4UCYWGHJyobUB4rkkYNHYJ9Yhqj/MC/fLMVYNFenqD3OmPFtbW7b1O0XKxINa87QItKGORSV6AaE4vxB4B/eSKhOLq99lfxgH49FyCRcX95LgnzuNJ6g/GivkLBeMjb6CvFwrM2g8Z5jVsAMI7u9EKxOK9sPFSMtyqSxM2GWdVDauNEA0Yn/+BcZaoD2pofqhYTCF+KEywww1dDeLRExGR0dNTU2N/fXF8fGxrRmztrZma3+5uLiQsru7W8pyOTs7k7K9vd0MDAxI3YWnbFsrj4aGBlsz5vb21ta+2Nvbk3JmZkbKcsDGxjMOqQ8ODkrp5+rqSkrPaaR0YpXqJMwyAT3PlVNoubiCwkIp6BzGnO2HnpuWtwCOibXQwEPSGoe50hXdCKKRSw5NqGfu7+9L6SnLVFdXS12zu7srZU9Pj5QaepE36SKPTsLJyYmU6K+rq0vqfu7v76VsaWmRMg3oCU9PT1ICHF3gSV7osy3lwWMN5uYCnvv+/i51HS38hCqTympubpZSAwE4QEdHh5Sag4MDKXt7e6UsF55lg8IM5GGoGhoakjINKP/l5aWUAKHV8ybT1NRkW8pjZ2dHStc6g6WlJVszgYYMQj8aUFmdnZ1Sauh5wDUpGkJa+TLMsMDm5qaUUHZaiwwaGxulpNfjg8nb25uZnZ2V3z8NxqOyQ/MlsOG2CH14dsE478obOl8yvyHnJd3V6v5cu1jkc+aUoHyaFJ2rIQfGCctbSWD//r0HxkZu5lpHrV+gZzJMBlnD+fm5lK789Pz8bGvGfHx8iJcjr2ovXVxcLHyuiuLu7s7WvvrzMzk5KVHEO5o4wxB25RxL79DjoL0cewfspMfGxmyLG46FOcbBcwgpEX2YTpCXsWYIscypkRHHKrUIWARu60M0gSfgHi6Xp2hP4uW3Kn0IjkKfHz3jKuyOYbncUbvkJPo8nMRzMSbehVdy7DA4VtCZ0Q8/GPgvft2KG3WcnokP2Z7QUmfO0JyentqaMfX19bb2F+xeudPzBJH68vKy/E4CNx/wDOz4EC1g+dxFe5M0c3NzUv8J8CEfzM/Pp7Iz94Mzsxe6C+djzA9zwgd1vXcJ2/wIVqn/OvQ2WH0UeA5XEq8C2vJd5+UwmCf9+SyIqKilQe7FniNMJq5TnPF/TZkM41EKwn0uTqmKINxAxA17GhgbZI07NjeOUR8UoMg4z3GdGHLD+BVlMl/GEZDPxvFgFzSGJDtpvAOvRG6OAxSO5yFrlPKhRMgVZmA0DCg0Dr+iTEwkKgQRbnCiLDgIhKm4HglFYAERWjluXDkBnsV7cbyYygzauNEwSpHh18JsXDihpJ4ZFygQ4/CiYn8KKEiPQwNAid+cdyky/KeVqQ/suKDQOEeDJOjcDO/6qXE0GBOhnHlRzxMeW6oM+d8TMkToh/ac/xe5MjNErswMkSszMxjzB2MgFVshVwItAAAAAElFTkSuQmCC;" vertex="1" parent="1">
          <mxGeometry x="60.46000000000001" y="14" width="79.06" height="22" as="geometry" />
        </mxCell>
      </root>
    </mxGraphModel>
  </diagram>
</mxfile>
